<svg xmlns="http://www.w3.org/2000/svg" preserveAspectRatio="xMinYMin meet" viewBox="0 0 95 95"><rect width="100%" height="100%" fill="#000000" /><path d="M31.9021 86.5456L33.8367 83.3898L40.5517 88.7035L48.6645 91.2481L57.7384 91.8842L59.6106 91.51L59.0364 90.0756L61.6326 89.5018L63.9291 86.4084L65.4518 87.8428V88.4915L69.0464 89.5018L70.6316 88.8532L74.0889 87.8428L76.9596 88.4915L79.0564 88.8532L93.8842 93.8176L94.5332 94.8904H0V93.9548L2.74588 92.4455L10.7339 90.2876H17.4239L31.5402 89.0652L31.9021 86.5456Z" fill="#198485"><animate attributeName="opacity" from="1" to="0" dur="0.1s" repeatCount="indefinite"></animate></path><path d="M47.5537 66.8375L46.2307 66.6753V64.0933L46.4054 62.584H46.6176L46.7424 60.5633L47.9655 60.451L48.0529 62.2971L47.9655 64.3178L47.5537 66.8375Z" fill="#FFFFFA"><animate attributeName="opacity" from="1" to="0" dur="0.2s" repeatCount="indefinite"></animate></path><path d="M50.8362 62.7462L49.5632 62.4967V61.6859L49.663 60.451L50.0624 58.9542H50.312V58.7546H51.7474L51.635 59.765L50.8362 62.7462Z" fill="#FFFFFA"><animate attributeName="opacity" from="1" to="0" dur="0.25s" repeatCount="indefinite"></animate></path><path d="M54.1188 61.8605H52.7584L52.5961 62.9208V65.7523L52.5462 69.1575L53.1702 69.2698L53.8442 69.4818L54.0065 69.0079V62.584L54.1188 61.8605Z" fill="#FFFFFA"><animate attributeName="opacity" from="1" to="0" dur="0.2s" repeatCount="indefinite"></animate></path><path d="M55.4543 64.717L56.8023 64.8916L57.0894 62.9457L57.2267 58.5301L55.8662 58.3804L55.7414 59.4656L55.6915 60.3263H55.5666L55.4918 61.5986L55.4543 64.717Z" fill="#FFFFFA"><animate attributeName="opacity" from="1" to="0" dur="0.25s" repeatCount="indefinite"></animate></path><path d="M59.1238 66.9373L58.4997 66.7127L58.3999 66.4508V65.2658L58.4997 63.8064H59.2985L60.0474 64.0684L59.9101 66.4508L59.7479 66.9996L59.1238 66.9373Z" fill="#FFFFFA"><animate attributeName="opacity" from="1" to="0" dur="0.2s" repeatCount="indefinite"></animate></path><path d="M71.9046 49.2498L71.2556 49.5367L71.5302 50.5346L71.7798 50.7092L71.7299 51.0086L71.006 52.3433L71.3555 52.6052L72.0295 52.8547L73.2651 53.0792L73.4274 52.2185L73.34 51.545H73.5522L73.6895 50.9338L74.0639 50.1854L74.4383 49.7737L75.7738 50.7966L77.1717 50.5097L77.3215 51.1333V52.2185L77.1717 53.4908H81.7898L82.3515 53.3287V52.9919L81.9271 51.8443L82.7384 50.5097L81.8397 49.9733L81.0534 49.7987L79.9301 49.649V49.861L76.2981 49.3995L73.8767 49.2498H71.9046Z" fill="#406869"><animate attributeName="opacity" from="1" to="0" dur="0.05s" repeatCount="indefinite"></animate></path><path d="M44.2337 48.6761L43.984 50.7841L41.8747 50.6968L40.3645 50.4598L40.5891 50.3725L40.4893 49.9858L40.8887 48.8756L40.2147 48.6386L40.1398 48.1148L40.0399 47.6408L39.7903 47.2416L38.6296 47.7655H36.5951L36.5577 48.6386L36.695 49.5991L36.7948 50.2976L33.5996 50.0856L32.9256 49.9858L33.013 48.6511H31.7149L31.7399 47.8653H33.0754L32.9506 46.6179L33.4124 46.5306H34.9476V46.331L36.1957 46.3809L41.4878 46.568L42.2491 46.8674L43.984 47.3165L44.6206 47.6283L44.2337 48.6761Z" fill="#406869"><animate attributeName="opacity" from="1" to="0" dur="0.8s" repeatCount="indefinite"></animate></path><path d="M54.668 58.9542L59.2986 54.5511L60.4344 57.0707L61.2456 59.0665L60.996 59.6153L59.5856 62.0851L61.0834 62.2597L61.7698 62.4343L63.5921 62.8834L63.7544 59.977L62.7933 59.6902V59.3658L63.1927 58.2308L63.2676 57.0707L63.667 56.0978L64.0789 54.7008L62.5811 54.8629L62.3565 54.4887L62.6435 52.8796L64.2162 53.0917H65.664L65.8387 52.2934L66.5502 50.9587L66.8872 49.861V48.4016L67.4239 49.1126L69.7953 46.5306L72.2666 44.8716L75.025 43.9736L78.4823 43.6243L82.6635 43.3499L81.4778 39.4083L66.5502 39.6827L65.8387 40.1192L63.4923 42.7886L62.0195 45.7822L60.8837 49.4369V52.5927L49.2262 50.7342L51.1358 52.0439L48.3525 51.4452L47.9656 54.9876L51.6725 56.1851L54.668 58.9542Z" fill="#198485"><animate attributeName="opacity" from="1" to="0" dur="0.6s" repeatCount="indefinite"></animate></path><path d="M52.5711 40.2814L47.7534 46.593L46.0559 42.1898L43.9591 39.4582L42.0744 37.7243L40.4393 36.4271L37.2816 40.2814L37.9181 37.0009L35.4593 36.4271L33.2751 36.1153H31.2032L28.994 36.4271L27.1343 38.1484L25.649 40.9176L24.8003 44.1607V47.2541L25.4119 50.1978L26.4353 52.9545L27.7459 55.1124L26.2856 56.9086L25.7988 58.5675H23.2277V59.7276L20.9436 60.3263L19.9825 59.291L18.7843 56.6342L18.0979 53.0792L17.5362 49.4494V45.8196L18.0979 42.6888L19.5582 39.4083H23.1153L23.7519 38.6349L22.4164 38.1484V35.9531L21.5801 34.8055L22.4164 33.5457L20.5317 30.0531L15.4393 34.8055L16.5502 30.0531L19.9825 27.758L27.8707 26.9847L37.5187 29.1301L43.5472 32.5229L47.304 35.9531L52.5711 40.2814Z" fill="#198485"><animate attributeName="opacity" from="1" to="0" dur="0.2s" repeatCount="indefinite"></animate></path><path d="M30.4418 58.4428L28.7569 56.8587L28.2077 58.0936L27.7334 60.688V62.6589L28.008 64.3552L27.8457 67.8478L26.8722 67.748L25.6615 70.3176L25.2621 75.2696L27.0969 75.9805L29.1063 76.2799H31.7524V75.4442H32.651L37.6685 77.0533L38.7793 77.1655L38.9291 76.7913H39.5657L39.2162 77.5522L44.4334 76.0803L43.3724 71.8144L41.5127 71.6273L41.3505 65.5278L37.7559 69.5442L36.5327 70.118L35.0974 68.8332L33.5746 65.0039L32.8882 64.3552L32.0394 62.9333L32.2641 60.0145L30.4418 58.4428Z" fill="#198485"><animate attributeName="opacity" from="1" to="0" dur="0.7s" repeatCount="indefinite"></animate></path><path d="M64.0539 68.958L61.9571 66.7252L63.9291 70.3051L68.4473 72.226L72.8657 73.3861L78.0954 73.1865L82.2142 71.9267L84.2861 70.1305L86.67 67.2117L87.5936 64.2929V59.7775L88.3175 55.0625L88.7544 51.5075L87.9805 50.7342L87.5936 48.6885L86.9571 44.8467L84.673 44.1232L80.2421 44.4101L84.673 47.1418L83.7494 50.0481L82.4763 51.5075L83.4997 52.9669H87.2441L86.9571 56.0728L86.1832 60.4011L84.0864 64.6796L81.6026 67.4487L76.6975 70.2178L72.4663 70.804H69.6955L64.0539 68.958Z" fill="#198485"><animate attributeName="opacity" from="1" to="0" dur="0.1s" repeatCount="indefinite"></animate></path><path d="M82.1643 32.3483L82.4638 34.4313L79.2561 30.1654L74.688 25.0637L69.97 21.3217L64.6281 18.4777L56.64 16.6067L51.972 18.4777L50.7863 19.9995L46.1682 16.0205L40.4643 17.4424L36.2831 21.6709L29.9925 24.1282L24.0889 24.5149L20.307 23.6293L15.0025 29.1925L16.1258 24.8143L17.4114 22.1075V20.0993L24.0889 16.0205L28.8068 12.6401L37.1692 8H48.1653L58.8617 9.52177L64.6281 13.2638L70.6565 17.6171L76.0859 22.6314L79.7803 27.546L82.1643 32.3483Z" fill="#198485"><animate attributeName="opacity" from="1" to="0" dur="0.1s" repeatCount="indefinite"></animate></path></svg>